<?xml version="1.0" encoding="UTF-8"?>
<svg width="20px" height="22px" viewBox="0 0 20 22" version="1.1" xmlns="http://www.w3.org/2000/svg" xmlns:xlink="http://www.w3.org/1999/xlink">
    <title>BAC5361C-23D5-4AF9-90B9-E1C06CFE0CE4</title>
    <g id="가이드" stroke="none" stroke-width="1" fill="none" fill-rule="evenodd">
        <g id=".." transform="translate(-753.000000, -1412.000000)" fill="#212223">
            <g id="Group-33" transform="translate(522.000000, 1410.000000)">
                <g id="icon/알림" transform="translate(229.000000, 1.000000)">
                    <path d="M20.8061538,17.9077857 C20.8061538,18.7155 20.1584615,19.3715714 19.3623077,19.3715714 L14.7730769,19.3715714 L9.22615385,19.3715714 L4.63692308,19.3715714 C3.84076923,19.3715714 3.19384615,18.7155 3.19384615,17.9077857 L3.19384615,17.6917143 C3.19384615,16.8832143 3.84076923,16.2271429 4.63692308,16.2271429 C4.96615385,16.2271429 5.23384615,15.9552857 5.23384615,15.619 L5.23384615,10.4340714 C5.23384615,7.19614286 7.51461538,4.44535714 10.6576923,3.89535714 C10.9438462,3.84585714 11.1530769,3.59207143 11.1530769,3.29585714 L11.1515385,3.16621429 C11.1553846,3.13714286 11.1615385,3.0735 11.1615385,3.04442857 C11.1615385,2.60285714 11.5192308,2.2155 11.9269231,2.2155 L12.1292308,2.2155 C12.5369231,2.2155 12.8946154,2.60285714 12.8946154,3.04442857 L12.8946154,3.30764286 C12.8946154,3.6015 13.1015385,3.85371429 13.3861538,3.90557143 C16.5030769,4.47442857 18.7653846,7.21971429 18.7653846,10.4340714 L18.7653846,15.619 C18.7653846,15.9552857 19.0330769,16.2271429 19.3623077,16.2271429 C20.1584615,16.2271429 20.8061538,16.8832143 20.8061538,17.6917143 L20.8061538,17.9077857 Z M12,21.7059286 C11.2607692,21.7059286 10.6276923,21.2431429 10.36,20.5878571 L13.6392308,20.5878571 C13.3723077,21.2431429 12.7384615,21.7059286 12,21.7059286 L12,21.7059286 Z M19.9592308,15.0807857 L19.9592308,10.4340714 C19.9592308,6.797 17.5123077,3.6675 14.0746154,2.81185714 C13.96,1.80928571 13.1153846,1 12.1292308,1 L11.9269231,1 C10.9307692,1 10.08,1.82342857 9.98,2.79614286 C6.51076923,3.63057143 4.04,6.76792857 4.04,10.4340714 L4.04,15.0807857 C2.87307692,15.3565714 2,16.422 2,17.6917143 L2,17.9077857 C2,19.3857143 3.18307692,20.5878571 4.63692308,20.5878571 L9.03692308,20.5878571 C9.34615385,21.9683571 10.5523077,23 12,23 C13.4476923,23 14.6530769,21.9683571 14.9623077,20.5878571 L19.3623077,20.5878571 C20.8169231,20.5878571 22,19.3857143 22,17.9077857 L22,17.6917143 C22,16.422 21.1269231,15.3565714 19.9592308,15.0807857 L19.9592308,15.0807857 Z" id="Fill-1"></path>
                </g>
            </g>
        </g>
    </g>
</svg>