<svg width="18" height="18" xmlns="http://www.w3.org/2000/svg">
    <g fill="none" fill-rule="evenodd">
        <path d="M15.363 2.636A9 9 0 1 0 2.635 15.363a9 9 0 0 0 12.73-12.726l-.002-.001z" fill="#E4E5E6"/>
        <path d="M12.055 11.172a.617.617 0 0 1 0 .899.608.608 0 0 1-.437.179.608.608 0 0 1-.43-.18L8.976 9.86l-2.18 2.21a.606.606 0 0 1-.43.18.615.615 0 0 1-.437-1.048l2.178-2.21L5.93 6.81a.617.617 0 0 1 .867-.87l2.18 2.182 2.18-2.181a.624.624 0 1 1 .898.869l-2.21 2.181 2.21 2.18z" fill="#77797C"/>
    </g>
</svg>
