<svg width="22" height="22" xmlns="http://www.w3.org/2000/svg">
    <g fill="#434446" fill-rule="evenodd">
        <path d="M19.235 10.979c-.675 0-1.257-.46-1.415-1.12a1.364 1.364 0 0 0-1.33-1.052c-.635 0-1.183.433-1.33 1.051-.158.66-.74 1.12-1.415 1.12s-1.257-.46-1.415-1.12A1.365 1.365 0 0 0 11 8.807c-.636 0-1.182.432-1.33 1.052a1.452 1.452 0 0 1-2.83-.002 1.366 1.366 0 0 0-2.66 0 1.45 1.45 0 0 1-1.53 1.118c-.746-.055-1.354-.775-1.354-1.605V7.85h19.346c.022 0 .04-.01.062-.013v1.679c0 .807-.66 1.463-1.469 1.463zM5.245 1.297h11.569l3.407 5.256H1.788l3.457-5.256zm16.629 5.422L17.75.36a.786.786 0 0 0-.66-.36H4.97a.785.785 0 0 0-.657.355L.129 6.718a.782.782 0 0 0-.129.43V9.37c0 1.47 1.087 2.789 2.554 2.898A2.75 2.75 0 0 0 5.44 10.16a.072.072 0 0 1 .07-.057c.03 0 .06.018.07.057a2.75 2.75 0 0 0 5.35 0 .07.07 0 0 1 .07-.057c.03 0 .06.02.07.057a2.751 2.751 0 0 0 5.35 0 .07.07 0 0 1 .138 0 2.751 2.751 0 0 0 2.677 2.115A2.763 2.763 0 0 0 22 9.515v-2.37a.78.78 0 0 0-.126-.426zM19.466 13.655a.648.648 0 0 0-.648.647v6.266c0 .084-.052.138-.088.138H3.27c-.036 0-.087-.054-.087-.138v-6.266a.648.648 0 0 0-1.298 0v6.266c0 .79.622 1.432 1.385 1.432h15.46c.763 0 1.384-.642 1.384-1.432v-6.266a.648.648 0 0 0-.648-.647"/>
    </g>
</svg>
