<svg width="22" height="20" xmlns="http://www.w3.org/2000/svg">
    <g fill="#434446" fill-rule="evenodd">
        <path d="M15.787.768v3.613h-1.29V1.26H1.29v8.85h2.416v2.576l2.508-2.226v1.702l-3.14 2.788c-.252.224-.657.048-.657-.285v-3.295H.786A.777.777 0 0 1 0 10.602V.768C0 .344.351 0 .786 0H15c.434 0 .786.344.786.768"/>
        <path d="M7.502 5.642h13.209v9.417h-2.762v2.577l-2.903-2.577H7.502V5.642zm-1.29 4.82v5.09c0 .424.353.768.787.768h7.549l4.034 3.58c.252.224.656.05.656-.285V16.32h1.977a.777.777 0 0 0 .785-.768V5.15a.778.778 0 0 0-.785-.768H6.999a.778.778 0 0 0-.786.768v5.312z"/>
    </g>
</svg>
