<svg width="18" height="10" xmlns="http://www.w3.org/2000/svg">
    <g fill="#212223" fill-rule="evenodd">
        <path d="M1.387 5C2.36 6.008 5.444 8.889 9 8.889c3.555 0 6.64-2.881 7.612-3.89C15.64 3.993 12.555 1.112 9 1.112 5.444 1.11 2.36 3.992 1.387 5M9 10C4.124 10 .288 5.532.128 5.343a.524.524 0 0 1 0-.687C.288 4.468 4.124 0 9 0c4.876 0 8.71 4.468 8.872 4.656a.524.524 0 0 1 0 .687C17.71 5.532 13.876 10 9 10"/>
        <path d="M9 3.222c-.995 0-1.8.796-1.8 1.778A1.79 1.79 0 0 0 9 6.778 1.79 1.79 0 0 0 10.8 5 1.79 1.79 0 0 0 9 3.222m0 4.742C7.342 7.964 6 6.637 6 5c0-1.636 1.342-2.963 3-2.963 1.657 0 3 1.327 3 2.963-.002 1.636-1.343 2.961-3 2.964"/>
    </g>
</svg>
