<svg width="18" height="16" xmlns="http://www.w3.org/2000/svg">
    <g fill="#212223" fill-rule="evenodd">
        <path d="M10.636 5.45A2.948 2.948 0 0 0 9 4.952C7.342 4.952 6 6.316 6 8c0 .615.183 1.184.49 1.661l-1.283 1.303C3.39 10.007 1.986 8.64 1.387 8 2.36 6.963 5.446 4 9 4c.9 0 1.767.19 2.58.49l-.944.96zM7.37 8.767A1.837 1.837 0 0 1 7.2 8c0-1.01.805-1.829 1.8-1.829.27 0 .525.065.755.174L7.37 8.767zM16.694.184a.61.61 0 0 0-.874 0l-3.36 3.412c-1.057-.443-2.225-.739-3.46-.739-4.875 0-8.712 4.594-8.873 4.79a.553.553 0 0 0 0 .706c.105.126 1.759 2.097 4.234 3.472l-3.056 3.103a.634.634 0 0 0 0 .888.613.613 0 0 0 .875 0l3.36-3.413.88-.894.944-.96.88-.894 2.385-2.422.88-.895 1.284-1.303.846-.86 3.055-3.103a.634.634 0 0 0 0-.888zM17.873 7.647c-.087-.105-1.255-1.483-3.066-2.736l-.828.841A16.079 16.079 0 0 1 16.613 8c-.971 1.037-4.059 4-7.614 4-.364 0-.722-.039-1.076-.096l-.955.97A8.269 8.269 0 0 0 9 13.143c4.876 0 8.713-4.595 8.874-4.79a.551.551 0 0 0 0-.706"/>
    </g>
</svg>
