<?xml version="1.0" encoding="UTF-8"?>
<svg width="17px" height="22px" viewBox="0 0 17 22" version="1.1" xmlns="http://www.w3.org/2000/svg" xmlns:xlink="http://www.w3.org/1999/xlink">
    <title>00CEDADE-F6B8-4989-B1C1-50ED26B01E10</title>
    <g id="가이드" stroke="none" stroke-width="1" fill="none" fill-rule="evenodd">
        <g id=".." transform="translate(-855.000000, -1412.000000)" fill="#212223">
            <g id="Group-33" transform="translate(522.000000, 1410.000000)">
                <g id="icon/pin" transform="translate(331.000000, 1.000000)">
                    <path d="M10.5000235,11.4594286 C9.4120555,11.4594286 8.53039964,10.5645 8.53039964,9.46135714 C8.53039964,8.35821429 9.4120555,7.46328571 10.5000235,7.46328571 C11.5879914,7.46328571 12.4696473,8.35821429 12.4696473,9.46135714 C12.4681019,10.5645 11.5872187,11.4578571 10.5000235,11.4594286 M10.5000235,1 C10.1839873,1 9.86872387,1.0165 9.55346043,1.04871429 C6.7261346,1.33864286 4.23879875,3.06878571 2.95301843,5.63964286 C1.32493002,8.93964286 1.81250657,12.9090714 4.18857296,15.7030714 L9.85558789,22.692 C10.020174,22.8955 10.2589397,23 10.5000235,23 C10.687018,23 10.8740124,22.9371429 11.0300988,22.8075 C11.0718248,22.7729286 11.1096873,22.7344286 11.144459,22.692 L16.8107013,15.7030714 C19.1875404,12.9090714 19.6751169,8.93964286 18.0470285,5.63964286 C16.7612482,3.06878571 14.2739123,1.33864286 11.4465865,1.04871429 C11.1320958,1.0165 10.8160596,1 10.5000235,1 M10.5000235,12.7558571 L10.5007962,12.7558571 L10.5015689,12.7558571 C12.287289,12.7535 13.7422916,11.2771429 13.7446097,9.46135714 C13.7446097,7.64557143 12.2888344,6.16685714 10.5000235,6.16685714 C8.7104398,6.16685714 7.25466449,7.64557143 7.25466449,9.46135714 C7.25466449,11.2787143 8.7104398,12.7558571 10.5000235,12.7558571 M10.5000235,2.29721429 C10.7727882,2.29721429 11.0486437,2.31057143 11.3183175,2.33885714 C13.7252921,2.58557143 15.8162305,4.03914286 16.9072893,6.22107143 C18.3082026,9.06064286 17.8917149,12.4502143 15.8278211,14.8788571 L10.5000235,21.4482143 L5.1529082,14.8552857 C3.10833204,12.4502143 2.69184431,9.06064286 4.08966678,6.22735714 C5.18381638,4.03992857 7.2747548,2.58557143 9.68018397,2.33885714 C9.95217596,2.31057143 10.2272588,2.29721429 10.5000235,2.29721429" id="Fill-1"></path>
                </g>
            </g>
        </g>
    </g>
</svg>