<svg width="22" height="22" xmlns="http://www.w3.org/2000/svg">
    <g fill="#434446" fill-rule="evenodd">
        <path d="M11.238 0h-.476a3.83 3.83 0 0 0-3.829 3.829v1.8a3.83 3.83 0 0 0 3.829 3.83h.476a3.83 3.83 0 0 0 3.83-3.83v-1.8a3.83 3.83 0 0 0-3.83-3.83m0 1.297A2.536 2.536 0 0 1 13.77 3.83v1.8a2.537 2.537 0 0 1-2.533 2.534h-.476a2.536 2.536 0 0 1-2.533-2.534v-1.8a2.535 2.535 0 0 1 2.533-2.533h.476M14.753 10.332a.902.902 0 0 0-.703.333l-2.449 3.048a.745.745 0 0 1-.582.275.744.744 0 0 1-.582-.275l-2.45-3.048a.902.902 0 0 0-.703-.333h-.037c-3.521 0-6.464 2.599-6.793 5.998l-.45 4.888c-.042.42.3.782.734.782h20.524a.725.725 0 0 0 .735-.782l-.45-4.888c-.33-3.4-3.273-5.998-6.794-5.998m-7.653 1.3 2.326 2.893c.388.482.969.76 1.593.76s1.204-.278 1.592-.76l2.326-2.894c2.787.087 5.058 2.13 5.318 4.818l.392 4.255H1.352l.392-4.249c.261-2.693 2.533-4.738 5.356-4.824"/>
    </g>
</svg>
