<?xml version="1.0" encoding="UTF-8"?>
<svg width="22px" height="20px" viewBox="0 0 22 20" version="1.1" xmlns="http://www.w3.org/2000/svg" xmlns:xlink="http://www.w3.org/1999/xlink">
    <title>94B1ED37-6CC9-4525-9E1D-76850A1D076B</title>
    <g id="가이드" stroke="none" stroke-width="1" fill="none" fill-rule="evenodd">
        <g id=".." transform="translate(-718.000000, -1413.000000)" fill="#212223">
            <g id="Group-33" transform="translate(522.000000, 1410.000000)">
                <g id="icon/뒤로" transform="translate(195.000000, 1.000000)">
                    <path d="M3.18397587,11.3714286 L11.4904996,3.1247619 C11.7447029,2.86857143 11.7447029,2.45047619 11.489544,2.19142857 C11.3643536,2.06857143 11.1971146,2 11.0193634,2 C10.8416122,2 10.6753288,2.06857143 10.5510941,2.19238095 L1.25738224,11.4247619 C1.16850664,11.507619 1.0251589,11.6780952 1.00222326,11.9409524 C0.972598064,12.3028571 1.24878138,12.5780952 1.25164833,12.5790476 L10.5501384,21.8152381 C10.7986078,22.0619048 11.2362963,22.0638095 11.4914553,21.8133333 C11.6080448,21.6971429 11.6749404,21.527619 11.6749404,21.3504762 C11.6749404,21.172381 11.6070891,21.0028571 11.4885883,20.8838095 L3.23558106,12.687619 L22.3367778,12.6857143 C22.703748,12.6857143 23,12.3895238 23,12.0257143 C23,11.6638095 22.703748,11.3685714 22.3367778,11.3685714 L3.18397587,11.3714286 Z" id="Fill-1"></path>
                </g>
            </g>
        </g>
    </g>
</svg>