<svg width="22" height="20" xmlns="http://www.w3.org/2000/svg">
    <path d="m19.488 9.921-.168.203-.15-.217a2.105 2.105 0 0 0-.223-.265l-7.053-7.023.171-.139a5.234 5.234 0 0 1 3.341-1.183c1.414 0 2.743.548 3.743 1.544a5.226 5.226 0 0 1 1.55 3.726 5.176 5.176 0 0 1-1.21 3.354m-1.46 1.487-.756.752-3.597-3.582a.668.668 0 0 0-.92 0 .648.648 0 0 0 0 .918l3.596 3.581-1.179 1.176-3.598-3.583a.652.652 0 0 0-.921 0 .648.648 0 0 0 0 .918l3.597 3.582-1.18 1.175-3.598-3.583a.668.668 0 0 0-.92 0 .65.65 0 0 0 0 .918l3.597 3.582-1.18 1.176-2.344-2.334-.082-.041v-.041l-5.608-5.584C.826 8.336.732 4.956 2.73 2.903a5.264 5.264 0 0 1 3.803-1.606 5.23 5.23 0 0 1 3.263 1.151l.18.141-3.302 3.158a.054.054 0 0 0-.002.077c.246.253.54.381.855.387h.023c.307 0 .597-.116.82-.328l2.53-2.42 7.126 7.097a.612.612 0 0 1 .135.202.624.624 0 0 1-.132.646M15.406 0a6.596 6.596 0 0 0-4.305 1.593l-.132.113-.13-.113A6.604 6.604 0 0 0 6.533 0C4.703 0 3 .731 1.738 2.059c-2.427 2.556-2.297 6.732.291 9.309l5.63 5.605.081.041v.041l1.883 1.875.954.905a.607.607 0 0 0 .843-.011l8.476-8.443c1.25-1.244 1.991-2.803 2.09-4.391a6.482 6.482 0 0 0-1.918-5.067A6.564 6.564 0 0 0 15.406 0" fill="#434446" fill-rule="evenodd"/>
</svg>
