<?xml version="1.0" encoding="UTF-8"?>
<svg width="23px" height="22px" viewBox="0 0 23 22" version="1.1" xmlns="http://www.w3.org/2000/svg" xmlns:xlink="http://www.w3.org/1999/xlink">
    <title>B3D64B95-7D2C-4DFB-B319-34574A59D26D</title>
    <g id="가이드" stroke="none" stroke-width="1" fill="none" fill-rule="evenodd">
        <g id=".." transform="translate(-819.000000, -1412.000000)" fill="#212223">
            <g id="Group-33" transform="translate(522.000000, 1410.000000)">
                <g id="icon/설정" transform="translate(297.000000, 1.000000)">
                    <path d="M11.5000051,14.4835556 C10.1388986,14.4835556 9.03572052,13.3697037 9.03572052,11.9942963 C9.03572052,10.6205185 10.1388986,9.50585185 11.5000051,9.50585185 C12.8611117,9.50585185 13.9642897,10.6205185 13.9642897,11.9942963 C13.9642897,13.3697037 12.8611117,14.4835556 11.5000051,14.4835556 M14.9705393,1 C14.5466823,1 14.1359682,1.19148148 13.8616112,1.53859259 C13.2701829,2.30288889 12.3887905,2.70214815 11.4983623,2.70214815 C10.8518983,2.70214815 10.2013271,2.49192593 9.65343453,2.05925926 C9.46122033,1.90688889 9.28872041,1.73333333 9.13839905,1.53859259 C8.86404202,1.1922963 8.45250649,1 8.02947097,1 C7.8643639,1 7.69761397,1.02933333 7.53661405,1.09044444 C6.40140027,1.51088889 5.34011503,2.11222222 4.39300831,2.87162963 C3.90261567,3.26274074 3.72272289,3.93251852 3.94861565,4.52081481 C4.57372251,6.06488889 3.84100855,7.82896296 2.31315209,8.45962963 C2.0396165,8.57288889 1.75047377,8.64459259 1.45640247,8.6722963 C0.837045608,8.73911111 0.332688691,9.20681481 0.214403029,9.82607407 C0.0714745217,10.5398519 0,11.2666667 0,11.9942963 C-0.000811160352,12.6037778 0.0476531037,13.2124444 0.14540306,13.8154074 C0.245617301,14.4542222 0.758188501,14.9455556 1.39561679,15.0148148 C3.03929463,15.1712593 4.24679409,16.6436296 4.09236558,18.3042222 C4.06115131,18.6423704 3.97325849,18.974 3.8336157,19.2828148 C3.56500868,19.8694815 3.7260086,20.5653333 4.22461552,20.9711111 C5.22100794,21.8062963 6.35129315,22.4638519 7.56700689,22.9152593 C7.72225682,22.969037 7.88572103,22.9983704 8.05000667,23 C8.50754218,22.9991852 8.93632771,22.7742963 9.20000616,22.3962222 C9.75364877,21.5814074 10.6687198,21.094963 11.6462194,21.094963 L11.6536122,21.094963 C12.6015404,21.0957778 13.4944328,21.5496296 14.0603968,22.3188148 C14.333111,22.6879259 14.756968,22.8932593 15.1931463,22.8932593 C15.3681105,22.8932593 15.5463605,22.8598519 15.7163961,22.7905926 C16.8277885,22.3391852 17.862788,21.715037 18.783609,20.9401481 C19.2575731,20.5433333 19.4251445,19.8833333 19.1976088,19.3056296 C18.5544306,17.7688889 19.2674302,15.9966667 20.7878938,15.3488889 C21.0466437,15.2380741 21.3185365,15.1647407 21.5970006,15.1313333 C22.2089646,15.0457778 22.6960716,14.5691111 22.8003929,13.9547407 C22.9236072,13.3085926 22.9901429,12.6526667 23,11.9942963 C23,11.3008889 22.9359286,10.6082963 22.8086072,9.9262963 C22.7018216,9.32496296 22.2262146,8.86051852 21.6273935,8.77251852 C19.9853585,8.53133333 18.846859,6.99133333 19.0850732,5.33237037 C19.1179303,5.10422222 19.1762517,4.88259259 19.2583945,4.6682963 C19.4719659,4.09792593 19.3027517,3.45340741 18.8370019,3.06474074 C17.834038,2.21407407 16.6930742,1.54592593 15.4633962,1.09044444 C15.3023963,1.02933333 15.1356464,1 14.9705393,1 M11.5000051,15.828 C13.6061471,15.828 15.3188249,14.1087407 15.3188249,11.9942963 C15.3188249,9.88148148 13.6061471,8.16140741 11.5000051,8.16140741 C9.39386322,8.16140741 7.68118541,9.88148148 7.68118541,11.9942963 C7.68118541,14.1087407 9.39386322,15.828 11.5000051,15.828 M14.9705393,1 L14.9886107,2.34851852 C16.0728959,2.75185185 17.0709312,3.33607407 17.9654665,4.09385185 C17.9925737,4.11666667 18.0024308,4.1622963 17.9925737,4.18837037 C17.874288,4.49555556 17.7905023,4.81659259 17.7436809,5.1417037 C17.4003239,7.52911111 19.0538589,9.75437037 21.4302507,10.1031111 C21.4466793,10.1055556 21.467215,10.1251111 21.4762507,10.1723704 C21.5879649,10.7712593 21.6446435,11.384 21.6446435,11.9755556 C21.6364292,12.5540741 21.5772863,13.1366667 21.4639293,13.7306667 C21.4573578,13.7722222 21.4302507,13.7966667 21.4335364,13.7966667 C21.0269295,13.8463704 20.6293582,13.9522963 20.2523227,14.1136296 C18.0558236,15.0498519 17.0216455,17.6108148 17.9350737,19.7953333 C17.9515023,19.8360741 17.9408237,19.8865926 17.9063237,19.9151111 C17.0931098,20.5987407 16.1837888,21.1487407 15.1931463,21.5488148 C15.1849321,21.5488148 15.1701464,21.5455556 15.1553606,21.526 C14.3380396,20.4154074 13.0295045,19.7521481 11.6462194,19.7505185 C10.2169343,19.7505185 8.88129202,20.4585926 8.08532809,21.6302963 C8.07464952,21.6465926 8.06068524,21.6555556 8.06725667,21.6563704 C8.05575667,21.6555556 8.0450781,21.6547407 8.04179239,21.6547407 C8.03932811,21.6547407 8.03932811,21.6547407 8.04261382,21.6563704 C6.96900716,21.2571111 5.97918617,20.681037 5.08382943,19.9322222 C5.06329372,19.9151111 5.0509723,19.8743704 5.06904372,19.8344444 C5.27111506,19.3895556 5.39679357,18.9153333 5.44197212,18.4280741 C5.66457917,16.0341481 3.90672281,13.9025926 1.54265244,13.6793333 C1.51965245,13.6760741 1.49172389,13.6508148 1.48350961,13.6002963 C1.39725964,13.0722963 1.35454538,12.5320741 1.35535518,11.9942963 C1.35535518,11.3554815 1.41861678,10.7142222 1.54675958,10.0762222 C1.55415243,10.0346667 1.58125956,10.011037 1.58372385,10.011037 C2.01415223,9.9702963 2.43472347,9.866 2.83393757,9.70140741 C5.04111516,8.78962963 6.10568611,6.24088889 5.21525794,4.04333333 C5.19800795,3.99851852 5.21032937,3.94392593 5.24482935,3.91703704 C6.08022184,3.24807407 7.0109,2.72007407 8.02947097,2.34525926 C8.03850668,2.34525926 8.05575667,2.3477037 8.06397095,2.3582963 C8.280828,2.63859259 8.5313636,2.89118519 8.80900634,3.11118519 C9.57293457,3.71414815 10.5274341,4.04577778 11.4983623,4.04577778 C12.852076,4.04577778 14.1055754,3.43140741 14.927825,2.36888889 C14.9442536,2.3477037 14.9615036,2.34525926 14.9705393,2.34525926 L14.9705393,1" id="Fill-1"></path>
                </g>
            </g>
        </g>
    </g>
</svg>